<svg class="marks" width="471" height="349" viewBox="0 0 471 349" version="1.1" xmlns="http://www.w3.org/2000/svg" xmlns:xlink="http://www.w3.org/1999/xlink"><rect width="471" height="349" style="fill: white;"></rect><g transform="translate(44,12)"><g class="mark-group role-frame root"><g transform="translate(0,0)"><path class="background" d="M0.5,0.5h400v300h-400Z" style="fill: none; stroke: #ddd;"></path><g><g class="mark-group role-axis"><g transform="translate(0.5,300.5)"><path class="background" d="M0,0h0v0h0Z" style="pointer-events: none; fill: none;"></path><g><g class="mark-rule role-axis-grid" style="pointer-events: none;"><line transform="translate(0,-300)" x2="0" y2="300" style="fill: none; stroke: #ddd; stroke-width: 1; opacity: 1;"></line><line transform="translate(40,-300)" x2="0" y2="300" style="fill: none; stroke: #ddd; stroke-width: 1; opacity: 1;"></line><line transform="translate(80,-300)" x2="0" y2="300" style="fill: none; stroke: #ddd; stroke-width: 1; opacity: 1;"></line><line transform="translate(120,-300)" x2="0" y2="300" style="fill: none; stroke: #ddd; stroke-width: 1; opacity: 1;"></line><line transform="translate(160,-300)" x2="0" y2="300" style="fill: none; stroke: #ddd; stroke-width: 1; opacity: 1;"></line><line transform="translate(200,-300)" x2="0" y2="300" style="fill: none; stroke: #ddd; stroke-width: 1; opacity: 1;"></line><line transform="translate(240,-300)" x2="0" y2="300" style="fill: none; stroke: #ddd; stroke-width: 1; opacity: 1;"></line><line transform="translate(280,-300)" x2="0" y2="300" style="fill: none; stroke: #ddd; stroke-width: 1; opacity: 1;"></line><line transform="translate(320,-300)" x2="0" y2="300" style="fill: none; stroke: #ddd; stroke-width: 1; opacity: 1;"></line><line transform="translate(360,-300)" x2="0" y2="300" style="fill: none; stroke: #ddd; stroke-width: 1; opacity: 1;"></line><line transform="translate(400,-300)" x2="0" y2="300" style="fill: none; stroke: #ddd; stroke-width: 1; opacity: 1;"></line></g></g><path class="foreground" d="" style="pointer-events: none; display: none; fill: none;"></path></g></g><g class="mark-group role-axis"><g transform="translate(0.5,0.5)"><path class="background" d="M0,0h0v0h0Z" style="pointer-events: none; fill: none;"></path><g><g class="mark-rule role-axis-grid" style="pointer-events: none;"><line transform="translate(0,300)" x2="400" y2="0" style="fill: none; stroke: #ddd; stroke-width: 1; opacity: 1;"></line><line transform="translate(0,246)" x2="400" y2="0" style="fill: none; stroke: #ddd; stroke-width: 1; opacity: 1;"></line><line transform="translate(0,193)" x2="400" y2="0" style="fill: none; stroke: #ddd; stroke-width: 1; opacity: 1;"></line><line transform="translate(0,139)" x2="400" y2="0" style="fill: none; stroke: #ddd; stroke-width: 1; opacity: 1;"></line><line transform="translate(0,86)" x2="400" y2="0" style="fill: none; stroke: #ddd; stroke-width: 1; opacity: 1;"></line><line transform="translate(0,32)" x2="400" y2="0" style="fill: none; stroke: #ddd; stroke-width: 1; opacity: 1;"></line></g></g><path class="foreground" d="" style="pointer-events: none; display: none; fill: none;"></path></g></g><g class="mark-group role-axis"><g transform="translate(0.5,300.5)"><path class="background" d="M0,0h0v0h0Z" style="pointer-events: none; fill: none;"></path><g><g class="mark-rule role-axis-tick" style="pointer-events: none;"><line transform="translate(0,0)" x2="0" y2="5" style="fill: none; stroke: #888; stroke-width: 1; opacity: 1;"></line><line transform="translate(40,0)" x2="0" y2="5" style="fill: none; stroke: #888; stroke-width: 1; opacity: 1;"></line><line transform="translate(80,0)" x2="0" y2="5" style="fill: none; stroke: #888; stroke-width: 1; opacity: 1;"></line><line transform="translate(120,0)" x2="0" y2="5" style="fill: none; stroke: #888; stroke-width: 1; opacity: 1;"></line><line transform="translate(160,0)" x2="0" y2="5" style="fill: none; stroke: #888; stroke-width: 1; opacity: 1;"></line><line transform="translate(200,0)" x2="0" y2="5" style="fill: none; stroke: #888; stroke-width: 1; opacity: 1;"></line><line transform="translate(240,0)" x2="0" y2="5" style="fill: none; stroke: #888; stroke-width: 1; opacity: 1;"></line><line transform="translate(280,0)" x2="0" y2="5" style="fill: none; stroke: #888; stroke-width: 1; opacity: 1;"></line><line transform="translate(320,0)" x2="0" y2="5" style="fill: none; stroke: #888; stroke-width: 1; opacity: 1;"></line><line transform="translate(360,0)" x2="0" y2="5" style="fill: none; stroke: #888; stroke-width: 1; opacity: 1;"></line><line transform="translate(400,0)" x2="0" y2="5" style="fill: none; stroke: #888; stroke-width: 1; opacity: 1;"></line></g><g class="mark-text role-axis-label" style="pointer-events: none;"><text text-anchor="start" transform="translate(0,15)" style="font-family: sans-serif; font-size: 10px; fill: #000; opacity: 1;">0</text><text text-anchor="middle" transform="translate(40,15)" style="font-family: sans-serif; font-size: 10px; fill: #000; opacity: 1;">200</text><text text-anchor="middle" transform="translate(80,15)" style="font-family: sans-serif; font-size: 10px; fill: #000; opacity: 1;">400</text><text text-anchor="middle" transform="translate(120,15)" style="font-family: sans-serif; font-size: 10px; fill: #000; opacity: 1;">600</text><text text-anchor="middle" transform="translate(160,15)" style="font-family: sans-serif; font-size: 10px; fill: #000; opacity: 1;">800</text><text text-anchor="middle" transform="translate(200,15)" style="font-family: sans-serif; font-size: 10px; fill: #000; opacity: 1;">1,000</text><text text-anchor="middle" transform="translate(240,15)" style="font-family: sans-serif; font-size: 10px; fill: #000; opacity: 1;">1,200</text><text text-anchor="middle" transform="translate(280,15)" style="font-family: sans-serif; font-size: 10px; fill: #000; opacity: 1;">1,400</text><text text-anchor="middle" transform="translate(320,15)" style="font-family: sans-serif; font-size: 10px; fill: #000; opacity: 1;">1,600</text><text text-anchor="middle" transform="translate(360,15)" style="font-family: sans-serif; font-size: 10px; fill: #000; opacity: 1;">1,800</text><text text-anchor="end" transform="translate(400,15)" style="font-family: sans-serif; font-size: 10px; fill: #000; opacity: 1;">2,000</text></g><g class="mark-rule role-axis-domain" style="pointer-events: none;"><line transform="translate(0,0)" x2="400" y2="0" style="fill: none; stroke: #888; stroke-width: 1; opacity: 1;"></line></g><g class="mark-text role-axis-title" style="pointer-events: none;"><text text-anchor="middle" transform="translate(200,30)" style="font-family: sans-serif; font-size: 11px; font-weight: bold; fill: #000; opacity: 1;">Household Spending</text></g></g><path class="foreground" d="" style="pointer-events: none; display: none; fill: none;"></path></g></g><g class="mark-group role-axis"><g transform="translate(0.5,0.5)"><path class="background" d="M0,0h0v0h0Z" style="pointer-events: none; fill: none;"></path><g><g class="mark-rule role-axis-tick" style="pointer-events: none;"><line transform="translate(0,300)" x2="-5" y2="0" style="fill: none; stroke: #888; stroke-width: 1; opacity: 1;"></line><line transform="translate(0,246)" x2="-5" y2="0" style="fill: none; stroke: #888; stroke-width: 1; opacity: 1;"></line><line transform="translate(0,193)" x2="-5" y2="0" style="fill: none; stroke: #888; stroke-width: 1; opacity: 1;"></line><line transform="translate(0,139)" x2="-5" y2="0" style="fill: none; stroke: #888; stroke-width: 1; opacity: 1;"></line><line transform="translate(0,86)" x2="-5" y2="0" style="fill: none; stroke: #888; stroke-width: 1; opacity: 1;"></line><line transform="translate(0,32)" x2="-5" y2="0" style="fill: none; stroke: #888; stroke-width: 1; opacity: 1;"></line></g><g class="mark-text role-axis-label" style="pointer-events: none;"><text text-anchor="end" transform="translate(-7,303)" style="font-family: sans-serif; font-size: 10px; fill: #000; opacity: 1;">0</text><text text-anchor="end" transform="translate(-7,249.42857142857142)" style="font-family: sans-serif; font-size: 10px; fill: #000; opacity: 1;">50</text><text text-anchor="end" transform="translate(-7,195.85714285714283)" style="font-family: sans-serif; font-size: 10px; fill: #000; opacity: 1;">100</text><text text-anchor="end" transform="translate(-7,142.28571428571428)" style="font-family: sans-serif; font-size: 10px; fill: #000; opacity: 1;">150</text><text text-anchor="end" transform="translate(-7,88.71428571428571)" style="font-family: sans-serif; font-size: 10px; fill: #000; opacity: 1;">200</text><text text-anchor="end" transform="translate(-7,35.14285714285713)" style="font-family: sans-serif; font-size: 10px; fill: #000; opacity: 1;">250</text></g><g class="mark-rule role-axis-domain" style="pointer-events: none;"><line transform="translate(0,300)" x2="0" y2="-300" style="fill: none; stroke: #888; stroke-width: 1; opacity: 1;"></line></g><g class="mark-text role-axis-title" style="pointer-events: none;"><text text-anchor="middle" transform="translate(-27.6845703125,150) rotate(-90) translate(0,-2)" style="font-family: sans-serif; font-size: 11px; font-weight: bold; fill: #000; opacity: 1;">Treatable Mortality</text></g></g><path class="foreground" d="" style="pointer-events: none; display: none; fill: none;"></path></g></g><g class="mark-symbol role-mark layer_0_marks"><path transform="translate(166.019,245.35714285714286)" d="M8.660254037844387,0A8.660254037844387,8.660254037844387,0,1,1,-8.660254037844387,0A8.660254037844387,8.660254037844387,0,1,1,8.660254037844387,0" style="fill: gray; stroke-width: 2; opacity: 0.7;"></path><path transform="translate(188.8022,236.78571428571428)" d="M8.660254037844387,0A8.660254037844387,8.660254037844387,0,1,1,-8.660254037844387,0A8.660254037844387,8.660254037844387,0,1,1,8.660254037844387,0" style="fill: gray; stroke-width: 2; opacity: 0.7;"></path><path transform="translate(158.7604,240)" d="M8.660254037844387,0A8.660254037844387,8.660254037844387,0,1,1,-8.660254037844387,0A8.660254037844387,8.660254037844387,0,1,1,8.660254037844387,0" style="fill: gray; stroke-width: 2; opacity: 0.7;"></path><path transform="translate(129.752,236.78571428571428)" d="M8.660254037844387,0A8.660254037844387,8.660254037844387,0,1,1,-8.660254037844387,0A8.660254037844387,8.660254037844387,0,1,1,8.660254037844387,0" style="fill: gray; stroke-width: 2; opacity: 0.7;"></path><path transform="translate(126.83440000000002,212.1428571428571)" d="M8.660254037844387,0A8.660254037844387,8.660254037844387,0,1,1,-8.660254037844387,0A8.660254037844387,8.660254037844387,0,1,1,8.660254037844387,0" style="fill: gray; stroke-width: 2; opacity: 0.7;"></path><path transform="translate(75.4916,191.78571428571428)" d="M8.660254037844387,0A8.660254037844387,8.660254037844387,0,1,1,-8.660254037844387,0A8.660254037844387,8.660254037844387,0,1,1,8.660254037844387,0" style="fill: gray; stroke-width: 2; opacity: 0.7;"></path><path transform="translate(127.84519999999999,236.78571428571428)" d="M8.660254037844387,0A8.660254037844387,8.660254037844387,0,1,1,-8.660254037844387,0A8.660254037844387,8.660254037844387,0,1,1,8.660254037844387,0" style="fill: gray; stroke-width: 2; opacity: 0.7;"></path><path transform="translate(85.08680000000001,185.35714285714286)" d="M8.660254037844387,0A8.660254037844387,8.660254037844387,0,1,1,-8.660254037844387,0A8.660254037844387,8.660254037844387,0,1,1,8.660254037844387,0" style="fill: gray; stroke-width: 2; opacity: 0.7;"></path><path transform="translate(90.7712,248.57142857142856)" d="M8.660254037844387,0A8.660254037844387,8.660254037844387,0,1,1,-8.660254037844387,0A8.660254037844387,8.660254037844387,0,1,1,8.660254037844387,0" style="fill: gray; stroke-width: 2; opacity: 0.7;"></path><path transform="translate(135.7434,228.2142857142857)" d="M8.660254037844387,0A8.660254037844387,8.660254037844387,0,1,1,-8.660254037844387,0A8.660254037844387,8.660254037844387,0,1,1,8.660254037844387,0" style="fill: gray; stroke-width: 2; opacity: 0.7;"></path><path transform="translate(153.0362,219.64285714285717)" d="M8.660254037844387,0A8.660254037844387,8.660254037844387,0,1,1,-8.660254037844387,0A8.660254037844387,8.660254037844387,0,1,1,8.660254037844387,0" style="fill: gray; stroke-width: 2; opacity: 0.7;"></path><path transform="translate(103.918,150)" d="M8.660254037844387,0A8.660254037844387,8.660254037844387,0,1,1,-8.660254037844387,0A8.660254037844387,8.660254037844387,0,1,1,8.660254037844387,0" style="fill: gray; stroke-width: 2; opacity: 0.7;"></path><path transform="translate(131.7526,248.57142857142856)" d="M8.660254037844387,0A8.660254037844387,8.660254037844387,0,1,1,-8.660254037844387,0A8.660254037844387,8.660254037844387,0,1,1,8.660254037844387,0" style="fill: gray; stroke-width: 2; opacity: 0.7;"></path><path transform="translate(113.9656,230.35714285714283)" d="M8.660254037844387,0A8.660254037844387,8.660254037844387,0,1,1,-8.660254037844387,0A8.660254037844387,8.660254037844387,0,1,1,8.660254037844387,0" style="fill: gray; stroke-width: 2; opacity: 0.7;"></path><path transform="translate(103.886,230.35714285714283)" d="M8.660254037844387,0A8.660254037844387,8.660254037844387,0,1,1,-8.660254037844387,0A8.660254037844387,8.660254037844387,0,1,1,8.660254037844387,0" style="fill: gray; stroke-width: 2; opacity: 0.7;"></path><path transform="translate(144.8118,241.07142857142858)" d="M8.660254037844387,0A8.660254037844387,8.660254037844387,0,1,1,-8.660254037844387,0A8.660254037844387,8.660254037844387,0,1,1,8.660254037844387,0" style="fill: gray; stroke-width: 2; opacity: 0.7;"></path><path transform="translate(116.96560000000001,244.28571428571428)" d="M8.660254037844387,0A8.660254037844387,8.660254037844387,0,1,1,-8.660254037844387,0A8.660254037844387,8.660254037844387,0,1,1,8.660254037844387,0" style="fill: gray; stroke-width: 2; opacity: 0.7;"></path><path transform="translate(169.3174,248.57142857142856)" d="M8.660254037844387,0A8.660254037844387,8.660254037844387,0,1,1,-8.660254037844387,0A8.660254037844387,8.660254037844387,0,1,1,8.660254037844387,0" style="fill: gray; stroke-width: 2; opacity: 0.7;"></path><path transform="translate(118.22080000000001,131.78571428571428)" d="M8.660254037844387,0A8.660254037844387,8.660254037844387,0,1,1,-8.660254037844387,0A8.660254037844387,8.660254037844387,0,1,1,8.660254037844387,0" style="fill: gray; stroke-width: 2; opacity: 0.7;"></path><path transform="translate(122.10739999999998,125.35714285714285)" d="M8.660254037844387,0A8.660254037844387,8.660254037844387,0,1,1,-8.660254037844387,0A8.660254037844387,8.660254037844387,0,1,1,8.660254037844387,0" style="fill: gray; stroke-width: 2; opacity: 0.7;"></path><path transform="translate(102.0568,245.35714285714286)" d="M8.660254037844387,0A8.660254037844387,8.660254037844387,0,1,1,-8.660254037844387,0A8.660254037844387,8.660254037844387,0,1,1,8.660254037844387,0" style="fill: gray; stroke-width: 2; opacity: 0.7;"></path><path transform="translate(88.9814,140.35714285714286)" d="M8.660254037844387,0A8.660254037844387,8.660254037844387,0,1,1,-8.660254037844387,0A8.660254037844387,8.660254037844387,0,1,1,8.660254037844387,0" style="fill: gray; stroke-width: 2; opacity: 0.7;"></path><path transform="translate(111.2522,243.21428571428572)" d="M8.660254037844387,0A8.660254037844387,8.660254037844387,0,1,1,-8.660254037844387,0A8.660254037844387,8.660254037844387,0,1,1,8.660254037844387,0" style="fill: gray; stroke-width: 2; opacity: 0.7;"></path><path transform="translate(162.02879999999996,248.57142857142856)" d="M8.660254037844387,0A8.660254037844387,8.660254037844387,0,1,1,-8.660254037844387,0A8.660254037844387,8.660254037844387,0,1,1,8.660254037844387,0" style="fill: gray; stroke-width: 2; opacity: 0.7;"></path><path transform="translate(83.826,192.85714285714283)" d="M8.660254037844387,0A8.660254037844387,8.660254037844387,0,1,1,-8.660254037844387,0A8.660254037844387,8.660254037844387,0,1,1,8.660254037844387,0" style="fill: gray; stroke-width: 2; opacity: 0.7;"></path><path transform="translate(140.8614,227.14285714285714)" d="M8.660254037844387,0A8.660254037844387,8.660254037844387,0,1,1,-8.660254037844387,0A8.660254037844387,8.660254037844387,0,1,1,8.660254037844387,0" style="fill: gray; stroke-width: 2; opacity: 0.7;"></path><path transform="translate(64.3476,229.28571428571428)" d="M8.660254037844387,0A8.660254037844387,8.660254037844387,0,1,1,-8.660254037844387,0A8.660254037844387,8.660254037844387,0,1,1,8.660254037844387,0" style="fill: gray; stroke-width: 2; opacity: 0.7;"></path><path transform="translate(143.894,243.21428571428572)" d="M8.660254037844387,0A8.660254037844387,8.660254037844387,0,1,1,-8.660254037844387,0A8.660254037844387,8.660254037844387,0,1,1,8.660254037844387,0" style="fill: gray; stroke-width: 2; opacity: 0.7;"></path><path transform="translate(155.7092,241.07142857142858)" d="M8.660254037844387,0A8.660254037844387,8.660254037844387,0,1,1,-8.660254037844387,0A8.660254037844387,8.660254037844387,0,1,1,8.660254037844387,0" style="fill: gray; stroke-width: 2; opacity: 0.7;"></path><path transform="translate(393.1412,255)" d="M8.660254037844387,0A8.660254037844387,8.660254037844387,0,1,1,-8.660254037844387,0A8.660254037844387,8.660254037844387,0,1,1,8.660254037844387,0" style="fill: gray; stroke-width: 2; opacity: 0.7;"></path><path transform="translate(35.26519999999999,182.14285714285717)" d="M8.660254037844387,0A8.660254037844387,8.660254037844387,0,1,1,-8.660254037844387,0A8.660254037844387,8.660254037844387,0,1,1,8.660254037844387,0" style="fill: gray; stroke-width: 2; opacity: 0.7;"></path><path transform="translate(72.7812,151.07142857142856)" d="M8.660254037844387,0A8.660254037844387,8.660254037844387,0,1,1,-8.660254037844387,0A8.660254037844387,8.660254037844387,0,1,1,8.660254037844387,0" style="fill: gray; stroke-width: 2; opacity: 0.7;"></path><path transform="translate(30.2922,196.07142857142858)" d="M8.660254037844387,0A8.660254037844387,8.660254037844387,0,1,1,-8.660254037844387,0A8.660254037844387,8.660254037844387,0,1,1,8.660254037844387,0" style="fill: gray; stroke-width: 2; opacity: 0.7;"></path><path transform="translate(16.555,2.1428571428571352)" d="M8.660254037844387,0A8.660254037844387,8.660254037844387,0,1,1,-8.660254037844387,0A8.660254037844387,8.660254037844387,0,1,1,8.660254037844387,0" style="fill: gray; stroke-width: 2; opacity: 0.7;"></path><path transform="translate(112.00680000000001,226.07142857142856)" d="M8.660254037844387,0A8.660254037844387,8.660254037844387,0,1,1,-8.660254037844387,0A8.660254037844387,8.660254037844387,0,1,1,8.660254037844387,0" style="fill: gray; stroke-width: 2; opacity: 0.7;"></path><path transform="translate(212.3828,206.78571428571428)" d="M8.660254037844387,0A8.660254037844387,8.660254037844387,0,1,1,-8.660254037844387,0A8.660254037844387,8.660254037844387,0,1,1,8.660254037844387,0" style="fill: gray; stroke-width: 2; opacity: 0.7;"></path></g><g class="mark-text role-mark layer_1_marks"><text text-anchor="middle" transform="translate(393.1412,238)" style="font-family: sans-serif; font-size: 11px; fill: black;">Switzerland</text><text text-anchor="middle" transform="translate(212.3828,189.78571428571428)" style="font-family: sans-serif; font-size: 11px; fill: black;">United States</text></g><g class="mark-symbol role-mark layer_2_marks"><path transform="translate(393.1412,255)" d="M7.0710678118654755,0A7.0710678118654755,7.0710678118654755,0,1,1,-7.0710678118654755,0A7.0710678118654755,7.0710678118654755,0,1,1,7.0710678118654755,0" style="fill: red; stroke-width: 2; opacity: 0.7;"></path><path transform="translate(212.3828,206.78571428571428)" d="M7.0710678118654755,0A7.0710678118654755,7.0710678118654755,0,1,1,-7.0710678118654755,0A7.0710678118654755,7.0710678118654755,0,1,1,7.0710678118654755,0" style="fill: red; stroke-width: 2; opacity: 0.7;"></path></g></g><path class="foreground" d="" style="display: none; fill: none;"></path></g></g></g></svg>