<svg class="marks" width="790" height="559" viewBox="0 0 790 559" version="1.1" xmlns="http://www.w3.org/2000/svg" xmlns:xlink="http://www.w3.org/1999/xlink"><rect width="790" height="559" style="fill: white;"></rect><g transform="translate(84,22)"><g class="mark-group role-frame root"><g transform="translate(0,0)"><path class="background" d="M0.5,0.5h700v500h-700Z" style="fill: none; stroke: #ddd;"></path><g><g class="mark-group role-axis"><g transform="translate(0.5,500.5)"><path class="background" d="M0,0h0v0h0Z" style="pointer-events: none; fill: none;"></path><g><g class="mark-rule role-axis-grid" style="pointer-events: none;"><line transform="translate(0,0)" x2="0" y2="-500" style="fill: none; stroke: #ddd; stroke-width: 1; opacity: 1;"></line><line transform="translate(35,0)" x2="0" y2="-500" style="fill: none; stroke: #ddd; stroke-width: 1; opacity: 1;"></line><line transform="translate(70,0)" x2="0" y2="-500" style="fill: none; stroke: #ddd; stroke-width: 1; opacity: 1;"></line><line transform="translate(105,0)" x2="0" y2="-500" style="fill: none; stroke: #ddd; stroke-width: 1; opacity: 1;"></line><line transform="translate(140,0)" x2="0" y2="-500" style="fill: none; stroke: #ddd; stroke-width: 1; opacity: 1;"></line><line transform="translate(175,0)" x2="0" y2="-500" style="fill: none; stroke: #ddd; stroke-width: 1; opacity: 1;"></line><line transform="translate(210,0)" x2="0" y2="-500" style="fill: none; stroke: #ddd; stroke-width: 1; opacity: 1;"></line><line transform="translate(245,0)" x2="0" y2="-500" style="fill: none; stroke: #ddd; stroke-width: 1; opacity: 1;"></line><line transform="translate(280,0)" x2="0" y2="-500" style="fill: none; stroke: #ddd; stroke-width: 1; opacity: 1;"></line><line transform="translate(315,0)" x2="0" y2="-500" style="fill: none; stroke: #ddd; stroke-width: 1; opacity: 1;"></line><line transform="translate(350,0)" x2="0" y2="-500" style="fill: none; stroke: #ddd; stroke-width: 1; opacity: 1;"></line><line transform="translate(385,0)" x2="0" y2="-500" style="fill: none; stroke: #ddd; stroke-width: 1; opacity: 1;"></line><line transform="translate(420,0)" x2="0" y2="-500" style="fill: none; stroke: #ddd; stroke-width: 1; opacity: 1;"></line><line transform="translate(455,0)" x2="0" y2="-500" style="fill: none; stroke: #ddd; stroke-width: 1; opacity: 1;"></line><line transform="translate(490,0)" x2="0" y2="-500" style="fill: none; stroke: #ddd; stroke-width: 1; opacity: 1;"></line><line transform="translate(525,0)" x2="0" y2="-500" style="fill: none; stroke: #ddd; stroke-width: 1; opacity: 1;"></line><line transform="translate(560,0)" x2="0" y2="-500" style="fill: none; stroke: #ddd; stroke-width: 1; opacity: 1;"></line><line transform="translate(595,0)" x2="0" y2="-500" style="fill: none; stroke: #ddd; stroke-width: 1; opacity: 1;"></line><line transform="translate(630,0)" x2="0" y2="-500" style="fill: none; stroke: #ddd; stroke-width: 1; opacity: 1;"></line><line transform="translate(665,0)" x2="0" y2="-500" style="fill: none; stroke: #ddd; stroke-width: 1; opacity: 1;"></line><line transform="translate(700,0)" x2="0" y2="-500" style="fill: none; stroke: #ddd; stroke-width: 1; opacity: 1;"></line></g></g><path class="foreground" d="" style="pointer-events: none; display: none; fill: none;"></path></g></g><g class="mark-group role-axis"><g transform="translate(0.5,500.5)"><path class="background" d="M0,0h0v0h0Z" style="pointer-events: none; fill: none;"></path><g><g class="mark-rule role-axis-tick" style="pointer-events: none;"><line transform="translate(0,0)" x2="0" y2="5" style="fill: none; stroke: #888; stroke-width: 1; opacity: 1;"></line><line transform="translate(35,0)" x2="0" y2="5" style="fill: none; stroke: #888; stroke-width: 1; opacity: 1;"></line><line transform="translate(70,0)" x2="0" y2="5" style="fill: none; stroke: #888; stroke-width: 1; opacity: 1;"></line><line transform="translate(105,0)" x2="0" y2="5" style="fill: none; stroke: #888; stroke-width: 1; opacity: 1;"></line><line transform="translate(140,0)" x2="0" y2="5" style="fill: none; stroke: #888; stroke-width: 1; opacity: 1;"></line><line transform="translate(175,0)" x2="0" y2="5" style="fill: none; stroke: #888; stroke-width: 1; opacity: 1;"></line><line transform="translate(210,0)" x2="0" y2="5" style="fill: none; stroke: #888; stroke-width: 1; opacity: 1;"></line><line transform="translate(245,0)" x2="0" y2="5" style="fill: none; stroke: #888; stroke-width: 1; opacity: 1;"></line><line transform="translate(280,0)" x2="0" y2="5" style="fill: none; stroke: #888; stroke-width: 1; opacity: 1;"></line><line transform="translate(315,0)" x2="0" y2="5" style="fill: none; stroke: #888; stroke-width: 1; opacity: 1;"></line><line transform="translate(350,0)" x2="0" y2="5" style="fill: none; stroke: #888; stroke-width: 1; opacity: 1;"></line><line transform="translate(385,0)" x2="0" y2="5" style="fill: none; stroke: #888; stroke-width: 1; opacity: 1;"></line><line transform="translate(420,0)" x2="0" y2="5" style="fill: none; stroke: #888; stroke-width: 1; opacity: 1;"></line><line transform="translate(455,0)" x2="0" y2="5" style="fill: none; stroke: #888; stroke-width: 1; opacity: 1;"></line><line transform="translate(490,0)" x2="0" y2="5" style="fill: none; stroke: #888; stroke-width: 1; opacity: 1;"></line><line transform="translate(525,0)" x2="0" y2="5" style="fill: none; stroke: #888; stroke-width: 1; opacity: 1;"></line><line transform="translate(560,0)" x2="0" y2="5" style="fill: none; stroke: #888; stroke-width: 1; opacity: 1;"></line><line transform="translate(595,0)" x2="0" y2="5" style="fill: none; stroke: #888; stroke-width: 1; opacity: 1;"></line><line transform="translate(630,0)" x2="0" y2="5" style="fill: none; stroke: #888; stroke-width: 1; opacity: 1;"></line><line transform="translate(665,0)" x2="0" y2="5" style="fill: none; stroke: #888; stroke-width: 1; opacity: 1;"></line><line transform="translate(700,0)" x2="0" y2="5" style="fill: none; stroke: #888; stroke-width: 1; opacity: 1;"></line></g><g class="mark-text role-axis-label" style="pointer-events: none;"><text text-anchor="start" transform="translate(0,15)" style="font-family: sans-serif; font-size: 10px; fill: #000; opacity: 1;">-1,000</text><text text-anchor="middle" transform="translate(35,15)" style="font-family: sans-serif; font-size: 10px; fill: #000; opacity: 0;">-900</text><text text-anchor="middle" transform="translate(70,15)" style="font-family: sans-serif; font-size: 10px; fill: #000; opacity: 1;">-800</text><text text-anchor="middle" transform="translate(105,15)" style="font-family: sans-serif; font-size: 10px; fill: #000; opacity: 0;">-700</text><text text-anchor="middle" transform="translate(140,15)" style="font-family: sans-serif; font-size: 10px; fill: #000; opacity: 1;">-600</text><text text-anchor="middle" transform="translate(175,15)" style="font-family: sans-serif; font-size: 10px; fill: #000; opacity: 0;">-500</text><text text-anchor="middle" transform="translate(210,15)" style="font-family: sans-serif; font-size: 10px; fill: #000; opacity: 1;">-400</text><text text-anchor="middle" transform="translate(244.99999999999997,15)" style="font-family: sans-serif; font-size: 10px; fill: #000; opacity: 0;">-300</text><text text-anchor="middle" transform="translate(280,15)" style="font-family: sans-serif; font-size: 10px; fill: #000; opacity: 1;">-200</text><text text-anchor="middle" transform="translate(315,15)" style="font-family: sans-serif; font-size: 10px; fill: #000; opacity: 0;">-100</text><text text-anchor="middle" transform="translate(350,15)" style="font-family: sans-serif; font-size: 10px; fill: #000; opacity: 1;">0</text><text text-anchor="middle" transform="translate(385.00000000000006,15)" style="font-family: sans-serif; font-size: 10px; fill: #000; opacity: 0;">100</text><text text-anchor="middle" transform="translate(420,15)" style="font-family: sans-serif; font-size: 10px; fill: #000; opacity: 1;">200</text><text text-anchor="middle" transform="translate(455,15)" style="font-family: sans-serif; font-size: 10px; fill: #000; opacity: 0;">300</text><text text-anchor="middle" transform="translate(489.99999999999994,15)" style="font-family: sans-serif; font-size: 10px; fill: #000; opacity: 1;">400</text><text text-anchor="middle" transform="translate(525,15)" style="font-family: sans-serif; font-size: 10px; fill: #000; opacity: 0;">500</text><text text-anchor="middle" transform="translate(560,15)" style="font-family: sans-serif; font-size: 10px; fill: #000; opacity: 1;">600</text><text text-anchor="middle" transform="translate(595,15)" style="font-family: sans-serif; font-size: 10px; fill: #000; opacity: 0;">700</text><text text-anchor="middle" transform="translate(630,15)" style="font-family: sans-serif; font-size: 10px; fill: #000; opacity: 1;">800</text><text text-anchor="middle" transform="translate(665,15)" style="font-family: sans-serif; font-size: 10px; fill: #000; opacity: 0;">900</text><text text-anchor="end" transform="translate(700,15)" style="font-family: sans-serif; font-size: 10px; fill: #000; opacity: 1;">1,000</text></g><g class="mark-rule role-axis-domain" style="pointer-events: none;"><line transform="translate(0,0)" x2="700" y2="0" style="fill: none; stroke: #888; stroke-width: 1; opacity: 1;"></line></g><g class="mark-text role-axis-title" style="pointer-events: none;"><text text-anchor="middle" transform="translate(350,30)" style="font-family: sans-serif; font-size: 11px; font-weight: bold; fill: #000; opacity: 1;">$ USD</text></g></g><path class="foreground" d="" style="pointer-events: none; display: none; fill: none;"></path></g></g><g class="mark-group role-axis"><g transform="translate(0.5,0.5)"><path class="background" d="M0,0h0v0h0Z" style="pointer-events: none; fill: none;"></path><g><g class="mark-rule role-axis-tick" style="pointer-events: none;"><line transform="translate(0,6)" x2="-5" y2="0" style="fill: none; stroke: #888; stroke-width: 1; opacity: 1;"></line><line transform="translate(0,18)" x2="-5" y2="0" style="fill: none; stroke: #888; stroke-width: 1; opacity: 1;"></line><line transform="translate(0,31)" x2="-5" y2="0" style="fill: none; stroke: #888; stroke-width: 1; opacity: 1;"></line><line transform="translate(0,43)" x2="-5" y2="0" style="fill: none; stroke: #888; stroke-width: 1; opacity: 1;"></line><line transform="translate(0,56)" x2="-5" y2="0" style="fill: none; stroke: #888; stroke-width: 1; opacity: 1;"></line><line transform="translate(0,68)" x2="-5" y2="0" style="fill: none; stroke: #888; stroke-width: 1; opacity: 1;"></line><line transform="translate(0,81)" x2="-5" y2="0" style="fill: none; stroke: #888; stroke-width: 1; opacity: 1;"></line><line transform="translate(0,93)" x2="-5" y2="0" style="fill: none; stroke: #888; stroke-width: 1; opacity: 1;"></line><line transform="translate(0,106)" x2="-5" y2="0" style="fill: none; stroke: #888; stroke-width: 1; opacity: 1;"></line><line transform="translate(0,118)" x2="-5" y2="0" style="fill: none; stroke: #888; stroke-width: 1; opacity: 1;"></line><line transform="translate(0,131)" x2="-5" y2="0" style="fill: none; stroke: #888; stroke-width: 1; opacity: 1;"></line><line transform="translate(0,143)" x2="-5" y2="0" style="fill: none; stroke: #888; stroke-width: 1; opacity: 1;"></line><line transform="translate(0,156)" x2="-5" y2="0" style="fill: none; stroke: #888; stroke-width: 1; opacity: 1;"></line><line transform="translate(0,168)" x2="-5" y2="0" style="fill: none; stroke: #888; stroke-width: 1; opacity: 1;"></line><line transform="translate(0,181)" x2="-5" y2="0" style="fill: none; stroke: #888; stroke-width: 1; opacity: 1;"></line><line transform="translate(0,193)" x2="-5" y2="0" style="fill: none; stroke: #888; stroke-width: 1; opacity: 1;"></line><line transform="translate(0,206)" x2="-5" y2="0" style="fill: none; stroke: #888; stroke-width: 1; opacity: 1;"></line><line transform="translate(0,218)" x2="-5" y2="0" style="fill: none; stroke: #888; stroke-width: 1; opacity: 1;"></line><line transform="translate(0,231)" x2="-5" y2="0" style="fill: none; stroke: #888; stroke-width: 1; opacity: 1;"></line><line transform="translate(0,243)" x2="-5" y2="0" style="fill: none; stroke: #888; stroke-width: 1; opacity: 1;"></line><line transform="translate(0,256)" x2="-5" y2="0" style="fill: none; stroke: #888; stroke-width: 1; opacity: 1;"></line><line transform="translate(0,268)" x2="-5" y2="0" style="fill: none; stroke: #888; stroke-width: 1; opacity: 1;"></line><line transform="translate(0,281)" x2="-5" y2="0" style="fill: none; stroke: #888; stroke-width: 1; opacity: 1;"></line><line transform="translate(0,293)" x2="-5" y2="0" style="fill: none; stroke: #888; stroke-width: 1; opacity: 1;"></line><line transform="translate(0,306)" x2="-5" y2="0" style="fill: none; stroke: #888; stroke-width: 1; opacity: 1;"></line><line transform="translate(0,318)" x2="-5" y2="0" style="fill: none; stroke: #888; stroke-width: 1; opacity: 1;"></line><line transform="translate(0,331)" x2="-5" y2="0" style="fill: none; stroke: #888; stroke-width: 1; opacity: 1;"></line><line transform="translate(0,343)" x2="-5" y2="0" style="fill: none; stroke: #888; stroke-width: 1; opacity: 1;"></line><line transform="translate(0,356)" x2="-5" y2="0" style="fill: none; stroke: #888; stroke-width: 1; opacity: 1;"></line><line transform="translate(0,368)" x2="-5" y2="0" style="fill: none; stroke: #888; stroke-width: 1; opacity: 1;"></line><line transform="translate(0,381)" x2="-5" y2="0" style="fill: none; stroke: #888; stroke-width: 1; opacity: 1;"></line><line transform="translate(0,393)" x2="-5" y2="0" style="fill: none; stroke: #888; stroke-width: 1; opacity: 1;"></line><line transform="translate(0,406)" x2="-5" y2="0" style="fill: none; stroke: #888; stroke-width: 1; opacity: 1;"></line><line transform="translate(0,418)" x2="-5" y2="0" style="fill: none; stroke: #888; stroke-width: 1; opacity: 1;"></line><line transform="translate(0,431)" x2="-5" y2="0" style="fill: none; stroke: #888; stroke-width: 1; opacity: 1;"></line><line transform="translate(0,443)" x2="-5" y2="0" style="fill: none; stroke: #888; stroke-width: 1; opacity: 1;"></line><line transform="translate(0,456)" x2="-5" y2="0" style="fill: none; stroke: #888; stroke-width: 1; opacity: 1;"></line><line transform="translate(0,468)" x2="-5" y2="0" style="fill: none; stroke: #888; stroke-width: 1; opacity: 1;"></line><line transform="translate(0,481)" x2="-5" y2="0" style="fill: none; stroke: #888; stroke-width: 1; opacity: 1;"></line><line transform="translate(0,493)" x2="-5" y2="0" style="fill: none; stroke: #888; stroke-width: 1; opacity: 1;"></line></g><g class="mark-text role-axis-label" style="pointer-events: none;"><text text-anchor="end" transform="translate(-7,8.75)" style="font-family: sans-serif; font-size: 10px; fill: #000; opacity: 1;">Switzerland</text><text text-anchor="end" transform="translate(-7,21.25)" style="font-family: sans-serif; font-size: 10px; fill: #000; opacity: 1;">United States</text><text text-anchor="end" transform="translate(-7,33.75)" style="font-family: sans-serif; font-size: 10px; fill: #000; opacity: 1;">Austria</text><text text-anchor="end" transform="translate(-7,46.25)" style="font-family: sans-serif; font-size: 10px; fill: #000; opacity: 1;">Korea</text><text text-anchor="end" transform="translate(-7,58.75)" style="font-family: sans-serif; font-size: 10px; fill: #000; opacity: 1;">Australia</text><text text-anchor="end" transform="translate(-7,71.25)" style="font-family: sans-serif; font-size: 10px; fill: #000; opacity: 1;">Norway</text><text text-anchor="end" transform="translate(-7,83.75)" style="font-family: sans-serif; font-size: 10px; fill: #000; opacity: 1;">Belgium</text><text text-anchor="end" transform="translate(-7,96.25)" style="font-family: sans-serif; font-size: 10px; fill: #000; opacity: 1;">Finland</text><text text-anchor="end" transform="translate(-7,108.75)" style="font-family: sans-serif; font-size: 10px; fill: #000; opacity: 1;">Sweden</text><text text-anchor="end" transform="translate(-7,121.25)" style="font-family: sans-serif; font-size: 10px; fill: #000; opacity: 1;">Greece</text><text text-anchor="end" transform="translate(-7,133.75)" style="font-family: sans-serif; font-size: 10px; fill: #000; opacity: 1;">Italy</text><text text-anchor="end" transform="translate(-7,146.25)" style="font-family: sans-serif; font-size: 10px; fill: #000; opacity: 1;">Spain</text><text text-anchor="end" transform="translate(-7,158.75)" style="font-family: sans-serif; font-size: 10px; fill: #000; opacity: 1;">Portugal</text><text text-anchor="end" transform="translate(-7,171.25)" style="font-family: sans-serif; font-size: 10px; fill: #000; opacity: 1;">Germany</text><text text-anchor="end" transform="translate(-7,183.75)" style="font-family: sans-serif; font-size: 10px; fill: #000; opacity: 1;">Iceland</text><text text-anchor="end" transform="translate(-7,196.25)" style="font-family: sans-serif; font-size: 10px; fill: #000; opacity: 1;">Canada</text><text text-anchor="end" transform="translate(-7,208.75)" style="font-family: sans-serif; font-size: 10px; fill: #000; opacity: 1;">Denmark</text><text text-anchor="end" transform="translate(-7,221.25)" style="font-family: sans-serif; font-size: 10px; fill: #000; opacity: 1;">Chile</text><text text-anchor="end" transform="translate(-7,233.75)" style="font-family: sans-serif; font-size: 10px; fill: #000; opacity: 1;">Lithuania</text><text text-anchor="end" transform="translate(-7,246.25)" style="font-family: sans-serif; font-size: 10px; fill: #000; opacity: 1;">Latvia</text><text text-anchor="end" transform="translate(-7,258.75)" style="font-family: sans-serif; font-size: 10px; fill: #000; opacity: 1;">Japan</text><text text-anchor="end" transform="translate(-7,271.25)" style="font-family: sans-serif; font-size: 10px; fill: #000; opacity: 1;">Ireland</text><text text-anchor="end" transform="translate(-7,283.75)" style="font-family: sans-serif; font-size: 10px; fill: #000; opacity: 1;">United Kingdom</text><text text-anchor="end" transform="translate(-7,296.25)" style="font-family: sans-serif; font-size: 10px; fill: #000; opacity: 1;">Netherlands</text><text text-anchor="end" transform="translate(-7,308.75)" style="font-family: sans-serif; font-size: 10px; fill: #000; opacity: 1;">Hungary</text><text text-anchor="end" transform="translate(-7,321.25)" style="font-family: sans-serif; font-size: 10px; fill: #000; opacity: 1;">Israel</text><text text-anchor="end" transform="translate(-7,333.75)" style="font-family: sans-serif; font-size: 10px; fill: #000; opacity: 1;">Luxembourg</text><text text-anchor="end" transform="translate(-7,346.25)" style="font-family: sans-serif; font-size: 10px; fill: #000; opacity: 1;">New Zealand</text><text text-anchor="end" transform="translate(-7,358.75)" style="font-family: sans-serif; font-size: 10px; fill: #000; opacity: 1;">France</text><text text-anchor="end" transform="translate(-7,371.25)" style="font-family: sans-serif; font-size: 10px; fill: #000; opacity: 1;">Mexico</text><text text-anchor="end" transform="translate(-7,383.75)" style="font-family: sans-serif; font-size: 10px; fill: #000; opacity: 1;">Estonia</text><text text-anchor="end" transform="translate(-7,396.25)" style="font-family: sans-serif; font-size: 10px; fill: #000; opacity: 1;">Poland</text><text text-anchor="end" transform="translate(-7,408.75)" style="font-family: sans-serif; font-size: 10px; fill: #000; opacity: 1;">Slovak Republic</text><text text-anchor="end" transform="translate(-7,421.25)" style="font-family: sans-serif; font-size: 10px; fill: #000; opacity: 1;">Czech Republic</text><text text-anchor="end" transform="translate(-7,433.75)" style="font-family: sans-serif; font-size: 10px; fill: #000; opacity: 1;">Brazil</text><text text-anchor="end" transform="translate(-7,446.25)" style="font-family: sans-serif; font-size: 10px; fill: #000; opacity: 1;">Slovenia</text><text text-anchor="end" transform="translate(-7,458.75)" style="font-family: sans-serif; font-size: 10px; fill: #000; opacity: 1;">Costa Rica</text><text text-anchor="end" transform="translate(-7,471.25)" style="font-family: sans-serif; font-size: 10px; fill: #000; opacity: 1;">Turkey</text><text text-anchor="end" transform="translate(-7,483.75)" style="font-family: sans-serif; font-size: 10px; fill: #000; opacity: 1;">Colombia</text><text text-anchor="end" transform="translate(-7,496.25)" style="font-family: sans-serif; font-size: 10px; fill: #000; opacity: 1;">South Africa</text></g><g class="mark-rule role-axis-domain" style="pointer-events: none;"><line transform="translate(0,0)" x2="0" y2="500" style="fill: none; stroke: #888; stroke-width: 1; opacity: 1;"></line></g></g><path class="foreground" d="" style="pointer-events: none; display: none; fill: none;"></path></g></g><g class="mark-rect role-mark marks"><path d="M268.86335,50.625h81.13664999999997v11.25h-81.13664999999997Z" style="fill: #4c78a8;"></path><path d="M308.73395000000005,25.625h41.26604999999995v11.25h-41.26604999999995Z" style="fill: #4c78a8;"></path><path d="M256.1608,75.625h93.8392v11.25h-93.8392Z" style="fill: #4c78a8;"></path><path d="M205.3961,188.125h144.6039v11.25h-144.6039Z" style="fill: #4c78a8;"></path><path d="M200.2903,213.125h149.7097v11.25h-149.7097Z" style="fill: #4c78a8;"></path><path d="M110.44040000000004,413.125h239.55959999999996v11.25h-239.55959999999996Z" style="fill: #4c78a8;"></path><path d="M202.0592,200.625h147.9408v11.25h-147.9408Z" style="fill: #4c78a8;"></path><path d="M127.23199999999999,375.625h222.76800000000003v11.25h-222.76800000000003Z" style="fill: #4c78a8;"></path><path d="M254.5774,88.125h95.42259999999999v11.25h-95.42259999999999Z" style="fill: #4c78a8;"></path><path d="M137.1797,350.625h212.8203v11.25h-212.8203Z" style="fill: #4c78a8;"></path><path d="M215.88105,163.125h134.11895v11.25h-134.11895Z" style="fill: #4c78a8;"></path><path d="M246.14345000000003,113.125h103.85654999999997v11.25h-103.85654999999997Z" style="fill: #4c78a8;"></path><path d="M160.1866,300.625h189.8134v11.25h-189.8134Z" style="fill: #4c78a8;"></path><path d="M208.89715000000004,175.625h141.10284999999996v11.25h-141.10284999999996Z" style="fill: #4c78a8;"></path><path d="M177.76989999999998,263.125h172.23010000000002v11.25h-172.23010000000002Z" style="fill: #4c78a8;"></path><path d="M160.1306,313.125h189.8694v11.25h-189.8694Z" style="fill: #4c78a8;"></path><path d="M231.75074999999998,125.625h118.24925000000002v11.25h-118.24925000000002Z" style="fill: #4c78a8;"></path><path d="M183.0199,250.625h166.9801v11.25h-166.9801Z" style="fill: #4c78a8;"></path><path d="M274.63554999999997,38.125h75.36445000000003v11.25h-75.36445000000003Z" style="fill: #4c78a8;"></path><path d="M185.21650000000002,238.125h164.78349999999998v11.25h-164.78349999999998Z" style="fill: #4c78a8;"></path><path d="M192.01805,225.625h157.98195v11.25h-157.98195Z" style="fill: #4c78a8;"></path><path d="M156.9295,325.625h193.0705v11.25h-193.0705Z" style="fill: #4c78a8;"></path><path d="M134.04754999999997,363.125h215.95245000000003v11.25h-215.95245000000003Z" style="fill: #4c78a8;"></path><path d="M173.02145,288.125h176.97855v11.25h-176.97855Z" style="fill: #4c78a8;"></path><path d="M142.67294999999996,338.125h207.32705000000004v11.25h-207.32705000000004Z" style="fill: #4c78a8;"></path><path d="M261.8805,63.125h88.11950000000002v11.25h-88.11950000000002Z" style="fill: #4c78a8;"></path><path d="M125.02560000000001,388.125h224.9744v11.25h-224.9744Z" style="fill: #4c78a8;"></path><path d="M224.83755,150.625h125.16245v11.25h-125.16245Z" style="fill: #4c78a8;"></path><path d="M111.286,400.625h238.714v11.25h-238.714Z" style="fill: #4c78a8;"></path><path d="M90.93840000000002,438.125h259.0616v11.25h-259.0616Z" style="fill: #4c78a8;"></path><path d="M230.1446,138.125h119.8554v11.25h-119.8554Z" style="fill: #4c78a8;"></path><path d="M250.8212,100.625h99.1788v11.25h-99.1788Z" style="fill: #4c78a8;"></path><path d="M350,0.625h316.32720000000006v11.25h-316.32720000000006Z" style="fill: #4c78a8;"></path><path d="M40.04420000000002,463.125h309.95579999999995v11.25h-309.95579999999995Z" style="fill: #4c78a8;"></path><path d="M105.6972,425.625h244.3028v11.25h-244.3028Z" style="fill: #4c78a8;"></path><path d="M31.34145000000001,475.625h318.65855v11.25h-318.65855Z" style="fill: #4c78a8;"></path><path d="M76.6451,450.625h273.3549v11.25h-273.3549Z" style="fill: #4c78a8;"></path><path d="M7.301349999999997,488.125h342.69865v11.25h-342.69865Z" style="fill: #4c78a8;"></path><path d="M174.342,275.625h175.658v11.25h-175.658Z" style="fill: #4c78a8;"></path><path d="M350,13.125h0v11.25h0Z" style="fill: #4c78a8;"></path></g><g class="mark-group role-title"><g transform="translate(350,-17)"><path class="background" d="M0,0h0v0h0Z" style="pointer-events: none; fill: none;"></path><g><g class="mark-text role-title-text" style="pointer-events: none;"><text text-anchor="middle" transform="translate(0,10)" style="font-family: sans-serif; font-size: 13px; font-weight: bold; fill: #000; opacity: 1;">United States</text></g></g><path class="foreground" d="" style="pointer-events: none; display: none; fill: none;"></path></g></g></g><path class="foreground" d="" style="display: none; fill: none;"></path></g></g></g></svg>
