<svg class="marks" width="464" height="358" viewBox="0 0 464 358" version="1.1" xmlns="http://www.w3.org/2000/svg" xmlns:xlink="http://www.w3.org/1999/xlink"><rect width="464" height="358" style="fill: white;"></rect><g transform="translate(39,21)"><g class="mark-group role-frame root"><g transform="translate(0,0)"><path class="background" d="M0.5,0.5h400v300h-400Z" style="fill: none; stroke: #ddd;"></path><g><g class="mark-group role-axis"><g transform="translate(0.5,300.5)"><path class="background" d="M0,0h0v0h0Z" style="pointer-events: none; fill: none;"></path><g><g class="mark-rule role-axis-grid" style="pointer-events: none;"><line transform="translate(0,-300)" x2="0" y2="300" style="fill: none; stroke: #ddd; stroke-width: 1; opacity: 1;"></line><line transform="translate(36,-300)" x2="0" y2="300" style="fill: none; stroke: #ddd; stroke-width: 1; opacity: 1;"></line><line transform="translate(73,-300)" x2="0" y2="300" style="fill: none; stroke: #ddd; stroke-width: 1; opacity: 1;"></line><line transform="translate(109,-300)" x2="0" y2="300" style="fill: none; stroke: #ddd; stroke-width: 1; opacity: 1;"></line><line transform="translate(145,-300)" x2="0" y2="300" style="fill: none; stroke: #ddd; stroke-width: 1; opacity: 1;"></line><line transform="translate(182,-300)" x2="0" y2="300" style="fill: none; stroke: #ddd; stroke-width: 1; opacity: 1;"></line><line transform="translate(218,-300)" x2="0" y2="300" style="fill: none; stroke: #ddd; stroke-width: 1; opacity: 1;"></line><line transform="translate(255,-300)" x2="0" y2="300" style="fill: none; stroke: #ddd; stroke-width: 1; opacity: 1;"></line><line transform="translate(291,-300)" x2="0" y2="300" style="fill: none; stroke: #ddd; stroke-width: 1; opacity: 1;"></line><line transform="translate(327,-300)" x2="0" y2="300" style="fill: none; stroke: #ddd; stroke-width: 1; opacity: 1;"></line><line transform="translate(364,-300)" x2="0" y2="300" style="fill: none; stroke: #ddd; stroke-width: 1; opacity: 1;"></line><line transform="translate(400,-300)" x2="0" y2="300" style="fill: none; stroke: #ddd; stroke-width: 1; opacity: 1;"></line></g></g><path class="foreground" d="" style="pointer-events: none; display: none; fill: none;"></path></g></g><g class="mark-group role-axis"><g transform="translate(0.5,0.5)"><path class="background" d="M0,0h0v0h0Z" style="pointer-events: none; fill: none;"></path><g><g class="mark-rule role-axis-grid" style="pointer-events: none;"><line transform="translate(0,300)" x2="400" y2="0" style="fill: none; stroke: #ddd; stroke-width: 1; opacity: 1;"></line><line transform="translate(0,267)" x2="400" y2="0" style="fill: none; stroke: #ddd; stroke-width: 1; opacity: 1;"></line><line transform="translate(0,233)" x2="400" y2="0" style="fill: none; stroke: #ddd; stroke-width: 1; opacity: 1;"></line><line transform="translate(0,200)" x2="400" y2="0" style="fill: none; stroke: #ddd; stroke-width: 1; opacity: 1;"></line><line transform="translate(0,167)" x2="400" y2="0" style="fill: none; stroke: #ddd; stroke-width: 1; opacity: 1;"></line><line transform="translate(0,133)" x2="400" y2="0" style="fill: none; stroke: #ddd; stroke-width: 1; opacity: 1;"></line><line transform="translate(0,100)" x2="400" y2="0" style="fill: none; stroke: #ddd; stroke-width: 1; opacity: 1;"></line><line transform="translate(0,67)" x2="400" y2="0" style="fill: none; stroke: #ddd; stroke-width: 1; opacity: 1;"></line><line transform="translate(0,33)" x2="400" y2="0" style="fill: none; stroke: #ddd; stroke-width: 1; opacity: 1;"></line><line transform="translate(0,0)" x2="400" y2="0" style="fill: none; stroke: #ddd; stroke-width: 1; opacity: 1;"></line></g></g><path class="foreground" d="" style="pointer-events: none; display: none; fill: none;"></path></g></g><g class="mark-group role-axis"><g transform="translate(0.5,300.5)"><path class="background" d="M0,0h0v0h0Z" style="pointer-events: none; fill: none;"></path><g><g class="mark-rule role-axis-tick" style="pointer-events: none;"><line transform="translate(0,0)" x2="0" y2="5" style="fill: none; stroke: #888; stroke-width: 1; opacity: 1;"></line><line transform="translate(36,0)" x2="0" y2="5" style="fill: none; stroke: #888; stroke-width: 1; opacity: 1;"></line><line transform="translate(73,0)" x2="0" y2="5" style="fill: none; stroke: #888; stroke-width: 1; opacity: 1;"></line><line transform="translate(109,0)" x2="0" y2="5" style="fill: none; stroke: #888; stroke-width: 1; opacity: 1;"></line><line transform="translate(145,0)" x2="0" y2="5" style="fill: none; stroke: #888; stroke-width: 1; opacity: 1;"></line><line transform="translate(182,0)" x2="0" y2="5" style="fill: none; stroke: #888; stroke-width: 1; opacity: 1;"></line><line transform="translate(218,0)" x2="0" y2="5" style="fill: none; stroke: #888; stroke-width: 1; opacity: 1;"></line><line transform="translate(255,0)" x2="0" y2="5" style="fill: none; stroke: #888; stroke-width: 1; opacity: 1;"></line><line transform="translate(291,0)" x2="0" y2="5" style="fill: none; stroke: #888; stroke-width: 1; opacity: 1;"></line><line transform="translate(327,0)" x2="0" y2="5" style="fill: none; stroke: #888; stroke-width: 1; opacity: 1;"></line><line transform="translate(364,0)" x2="0" y2="5" style="fill: none; stroke: #888; stroke-width: 1; opacity: 1;"></line><line transform="translate(400,0)" x2="0" y2="5" style="fill: none; stroke: #888; stroke-width: 1; opacity: 1;"></line></g><g class="mark-text role-axis-label" style="pointer-events: none;"><text text-anchor="start" transform="translate(0,15)" style="font-family: sans-serif; font-size: 10px; fill: #000; opacity: 1;">0</text><text text-anchor="middle" transform="translate(36.36363636363637,15)" style="font-family: sans-serif; font-size: 10px; fill: #000; opacity: 0;">100</text><text text-anchor="middle" transform="translate(72.72727272727273,15)" style="font-family: sans-serif; font-size: 10px; fill: #000; opacity: 1;">200</text><text text-anchor="middle" transform="translate(109.09090909090908,15)" style="font-family: sans-serif; font-size: 10px; fill: #000; opacity: 0;">300</text><text text-anchor="middle" transform="translate(145.45454545454547,15)" style="font-family: sans-serif; font-size: 10px; fill: #000; opacity: 1;">400</text><text text-anchor="middle" transform="translate(181.8181818181818,15)" style="font-family: sans-serif; font-size: 10px; fill: #000; opacity: 0;">500</text><text text-anchor="middle" transform="translate(218.18181818181816,15)" style="font-family: sans-serif; font-size: 10px; fill: #000; opacity: 1;">600</text><text text-anchor="middle" transform="translate(254.54545454545453,15)" style="font-family: sans-serif; font-size: 10px; fill: #000; opacity: 0;">700</text><text text-anchor="middle" transform="translate(290.90909090909093,15)" style="font-family: sans-serif; font-size: 10px; fill: #000; opacity: 1;">800</text><text text-anchor="middle" transform="translate(327.2727272727273,15)" style="font-family: sans-serif; font-size: 10px; fill: #000; opacity: 0;">900</text><text text-anchor="middle" transform="translate(363.6363636363636,15)" style="font-family: sans-serif; font-size: 10px; fill: #000; opacity: 1;">1,000</text><text text-anchor="end" transform="translate(400,15)" style="font-family: sans-serif; font-size: 10px; fill: #000; opacity: 0;">1,100</text></g><g class="mark-rule role-axis-domain" style="pointer-events: none;"><line transform="translate(0,0)" x2="400" y2="0" style="fill: none; stroke: #888; stroke-width: 1; opacity: 1;"></line></g><g class="mark-text role-axis-title" style="pointer-events: none;"><text text-anchor="middle" transform="translate(200,30)" style="font-family: sans-serif; font-size: 11px; font-weight: bold; fill: #000; opacity: 1;">Household Spending</text></g></g><path class="foreground" d="" style="pointer-events: none; display: none; fill: none;"></path></g></g><g class="mark-group role-axis"><g transform="translate(0.5,0.5)"><path class="background" d="M0,0h0v0h0Z" style="pointer-events: none; fill: none;"></path><g><g class="mark-rule role-axis-tick" style="pointer-events: none;"><line transform="translate(0,300)" x2="-5" y2="0" style="fill: none; stroke: #888; stroke-width: 1; opacity: 1;"></line><line transform="translate(0,267)" x2="-5" y2="0" style="fill: none; stroke: #888; stroke-width: 1; opacity: 1;"></line><line transform="translate(0,233)" x2="-5" y2="0" style="fill: none; stroke: #888; stroke-width: 1; opacity: 1;"></line><line transform="translate(0,200)" x2="-5" y2="0" style="fill: none; stroke: #888; stroke-width: 1; opacity: 1;"></line><line transform="translate(0,167)" x2="-5" y2="0" style="fill: none; stroke: #888; stroke-width: 1; opacity: 1;"></line><line transform="translate(0,133)" x2="-5" y2="0" style="fill: none; stroke: #888; stroke-width: 1; opacity: 1;"></line><line transform="translate(0,100)" x2="-5" y2="0" style="fill: none; stroke: #888; stroke-width: 1; opacity: 1;"></line><line transform="translate(0,67)" x2="-5" y2="0" style="fill: none; stroke: #888; stroke-width: 1; opacity: 1;"></line><line transform="translate(0,33)" x2="-5" y2="0" style="fill: none; stroke: #888; stroke-width: 1; opacity: 1;"></line><line transform="translate(0,0)" x2="-5" y2="0" style="fill: none; stroke: #888; stroke-width: 1; opacity: 1;"></line></g><g class="mark-text role-axis-label" style="pointer-events: none;"><text text-anchor="end" transform="translate(-7,303)" style="font-family: sans-serif; font-size: 10px; fill: #000; opacity: 1;">0</text><text text-anchor="end" transform="translate(-7,269.66666666666663)" style="font-family: sans-serif; font-size: 10px; fill: #000; opacity: 1;">10</text><text text-anchor="end" transform="translate(-7,236.33333333333334)" style="font-family: sans-serif; font-size: 10px; fill: #000; opacity: 1;">20</text><text text-anchor="end" transform="translate(-7,203.00000000000003)" style="font-family: sans-serif; font-size: 10px; fill: #000; opacity: 1;">30</text><text text-anchor="end" transform="translate(-7,169.66666666666669)" style="font-family: sans-serif; font-size: 10px; fill: #000; opacity: 1;">40</text><text text-anchor="end" transform="translate(-7,136.33333333333331)" style="font-family: sans-serif; font-size: 10px; fill: #000; opacity: 1;">50</text><text text-anchor="end" transform="translate(-7,103.00000000000001)" style="font-family: sans-serif; font-size: 10px; fill: #000; opacity: 1;">60</text><text text-anchor="end" transform="translate(-7,69.66666666666666)" style="font-family: sans-serif; font-size: 10px; fill: #000; opacity: 1;">70</text><text text-anchor="end" transform="translate(-7,36.33333333333335)" style="font-family: sans-serif; font-size: 10px; fill: #000; opacity: 1;">80</text><text text-anchor="end" transform="translate(-7,3)" style="font-family: sans-serif; font-size: 10px; fill: #000; opacity: 1;">90</text></g><g class="mark-rule role-axis-domain" style="pointer-events: none;"><line transform="translate(0,300)" x2="0" y2="-300" style="fill: none; stroke: #888; stroke-width: 1; opacity: 1;"></line></g><g class="mark-text role-axis-title" style="pointer-events: none;"><text text-anchor="middle" transform="translate(-22.123046875,150) rotate(-90) translate(0,-2)" style="font-family: sans-serif; font-size: 11px; font-weight: bold; fill: #000; opacity: 1;">Treatable Mortality</text></g></g><path class="foreground" d="" style="pointer-events: none; display: none; fill: none;"></path></g></g><g class="mark-symbol role-mark layer_0_marks"><path transform="translate(301.8527272727273,130)" d="M8.660254037844387,0A8.660254037844387,8.660254037844387,0,1,1,-8.660254037844387,0A8.660254037844387,8.660254037844387,0,1,1,8.660254037844387,0" style="fill: #4c78a8; stroke-width: 2; opacity: 0.7;"></path><path transform="translate(235.91272727272727,103.33333333333333)" d="M8.660254037844387,0A8.660254037844387,8.660254037844387,0,1,1,-8.660254037844387,0A8.660254037844387,8.660254037844387,0,1,1,8.660254037844387,0" style="fill: #f58518; stroke-width: 2; opacity: 0.7;"></path><path transform="translate(165.03854545454547,140)" d="M8.660254037844387,0A8.660254037844387,8.660254037844387,0,1,1,-8.660254037844387,0A8.660254037844387,8.660254037844387,0,1,1,8.660254037844387,0" style="fill: #e45756; stroke-width: 2; opacity: 0.7;"></path><path transform="translate(246.80618181818178,76.66666666666666)" d="M8.660254037844387,0A8.660254037844387,8.660254037844387,0,1,1,-8.660254037844387,0A8.660254037844387,8.660254037844387,0,1,1,8.660254037844387,0" style="fill: #72b7b2; stroke-width: 2; opacity: 0.7;"></path><path transform="translate(202.27672727272727,123.33333333333333)" d="M8.660254037844387,0A8.660254037844387,8.660254037844387,0,1,1,-8.660254037844387,0A8.660254037844387,8.660254037844387,0,1,1,8.660254037844387,0" style="fill: #54a24b; stroke-width: 2; opacity: 0.7;"></path><path transform="translate(203.64872727272726,69.99999999999999)" d="M8.660254037844387,0A8.660254037844387,8.660254037844387,0,1,1,-8.660254037844387,0A8.660254037844387,8.660254037844387,0,1,1,8.660254037844387,0" style="fill: #eeca3b; stroke-width: 2; opacity: 0.7;"></path><path transform="translate(386.1505454545454,9.999999999999998)" d="M8.660254037844387,0A8.660254037844387,8.660254037844387,0,1,1,-8.660254037844387,0A8.660254037844387,8.660254037844387,0,1,1,8.660254037844387,0" style="fill: #b279a2; stroke-width: 2; opacity: 0.7;"></path></g><g class="mark-text role-mark layer_1_marks"><text text-anchor="middle" transform="translate(301.8527272727273,113)" style="font-family: sans-serif; font-size: 11px; fill: black;">Australia</text><text text-anchor="middle" transform="translate(235.91272727272727,86.33333333333333)" style="font-family: sans-serif; font-size: 11px; fill: black;">Canada</text><text text-anchor="middle" transform="translate(165.03854545454547,123)" style="font-family: sans-serif; font-size: 11px; fill: black;">France</text><text text-anchor="middle" transform="translate(246.80618181818178,59.66666666666666)" style="font-family: sans-serif; font-size: 11px; fill: black;">Germany</text><text text-anchor="middle" transform="translate(202.27672727272727,106.33333333333333)" style="font-family: sans-serif; font-size: 11px; fill: black;">Netherlands</text><text text-anchor="middle" transform="translate(203.64872727272726,52.999999999999986)" style="font-family: sans-serif; font-size: 11px; fill: black;">United Kingdom</text><text text-anchor="middle" transform="translate(386.1505454545454,-7.000000000000002)" style="font-family: sans-serif; font-size: 11px; fill: black;">United States</text></g></g><path class="foreground" d="" style="display: none; fill: none;"></path></g></g></g></svg>