<svg class="marks" width="461" height="391" viewBox="0 0 461 391" version="1.1" xmlns="http://www.w3.org/2000/svg" xmlns:xlink="http://www.w3.org/1999/xlink"><g transform="translate(55,50)"><g class="mark-group role-frame root"><g transform="translate(0,0)"><path class="background" d="M0,0h400v300h-400Z" style="fill: none; stroke: #ddd; stroke-width: 0;"></path><g><g class="mark-group role-axis"><g transform="translate(0.5,300.5)"><path class="background" d="M0,0h0v0h0Z" style="pointer-events: none; fill: none;"></path><g><g class="mark-rule role-axis-tick" style="pointer-events: none;"><line transform="translate(0,0)" x2="0" y2="5" style="fill: none; stroke: #888; stroke-width: 1; opacity: 1;"></line><line transform="translate(40,0)" x2="0" y2="5" style="fill: none; stroke: #888; stroke-width: 1; opacity: 1;"></line><line transform="translate(80,0)" x2="0" y2="5" style="fill: none; stroke: #888; stroke-width: 1; opacity: 1;"></line><line transform="translate(120,0)" x2="0" y2="5" style="fill: none; stroke: #888; stroke-width: 1; opacity: 1;"></line><line transform="translate(160,0)" x2="0" y2="5" style="fill: none; stroke: #888; stroke-width: 1; opacity: 1;"></line><line transform="translate(200,0)" x2="0" y2="5" style="fill: none; stroke: #888; stroke-width: 1; opacity: 1;"></line><line transform="translate(240,0)" x2="0" y2="5" style="fill: none; stroke: #888; stroke-width: 1; opacity: 1;"></line><line transform="translate(280,0)" x2="0" y2="5" style="fill: none; stroke: #888; stroke-width: 1; opacity: 1;"></line><line transform="translate(320,0)" x2="0" y2="5" style="fill: none; stroke: #888; stroke-width: 1; opacity: 1;"></line><line transform="translate(360,0)" x2="0" y2="5" style="fill: none; stroke: #888; stroke-width: 1; opacity: 1;"></line><line transform="translate(400,0)" x2="0" y2="5" style="fill: none; stroke: #888; stroke-width: 1; opacity: 1;"></line></g><g class="mark-text role-axis-label" style="pointer-events: none;"><text text-anchor="start" transform="translate(0,18)" style="font-family: Raleway; font-size: 14px; fill: #000; opacity: 1;">200</text><text text-anchor="middle" transform="translate(40,18)" style="font-family: Raleway; font-size: 14px; fill: #000; opacity: 0;">300</text><text text-anchor="middle" transform="translate(80,18)" style="font-family: Raleway; font-size: 14px; fill: #000; opacity: 1;">400</text><text text-anchor="middle" transform="translate(120,18)" style="font-family: Raleway; font-size: 14px; fill: #000; opacity: 0;">500</text><text text-anchor="middle" transform="translate(160,18)" style="font-family: Raleway; font-size: 14px; fill: #000; opacity: 1;">600</text><text text-anchor="middle" transform="translate(200,18)" style="font-family: Raleway; font-size: 14px; fill: #000; opacity: 0;">700</text><text text-anchor="middle" transform="translate(240,18)" style="font-family: Raleway; font-size: 14px; fill: #000; opacity: 1;">800</text><text text-anchor="middle" transform="translate(280,18)" style="font-family: Raleway; font-size: 14px; fill: #000; opacity: 0;">900</text><text text-anchor="middle" transform="translate(320,18)" style="font-family: Raleway; font-size: 14px; fill: #000; opacity: 1;">1,000</text><text text-anchor="middle" transform="translate(360,18)" style="font-family: Raleway; font-size: 14px; fill: #000; opacity: 0;">1,100</text><text text-anchor="end" transform="translate(400,18)" style="font-family: Raleway; font-size: 14px; fill: #000; opacity: 1;">1,200</text></g><g class="mark-rule role-axis-domain" style="pointer-events: none;"><line transform="translate(0,0)" x2="400" y2="0" style="fill: none; stroke: #888; stroke-width: 1; opacity: 1;"></line></g><g class="mark-text role-axis-title" style="pointer-events: none;"><text text-anchor="middle" transform="translate(200,34)" style="font-family: sans-serif; font-size: 11px; font-weight: bold; fill: #000; opacity: 1;">Household Spending</text></g></g><path class="foreground" d="" style="pointer-events: none; display: none; fill: none;"></path></g></g><g class="mark-group role-axis"><g transform="translate(0.5,0.5)"><path class="background" d="M0,0h0v0h0Z" style="pointer-events: none; fill: none;"></path><g><g class="mark-rule role-axis-tick" style="pointer-events: none;"><line transform="translate(0,300)" x2="-5" y2="0" style="fill: none; stroke: #888; stroke-width: 1; opacity: 1;"></line><line transform="translate(0,263)" x2="-5" y2="0" style="fill: none; stroke: #888; stroke-width: 1; opacity: 1;"></line><line transform="translate(0,225)" x2="-5" y2="0" style="fill: none; stroke: #888; stroke-width: 1; opacity: 1;"></line><line transform="translate(0,188)" x2="-5" y2="0" style="fill: none; stroke: #888; stroke-width: 1; opacity: 1;"></line><line transform="translate(0,150)" x2="-5" y2="0" style="fill: none; stroke: #888; stroke-width: 1; opacity: 1;"></line><line transform="translate(0,113)" x2="-5" y2="0" style="fill: none; stroke: #888; stroke-width: 1; opacity: 1;"></line><line transform="translate(0,75)" x2="-5" y2="0" style="fill: none; stroke: #888; stroke-width: 1; opacity: 1;"></line><line transform="translate(0,38)" x2="-5" y2="0" style="fill: none; stroke: #888; stroke-width: 1; opacity: 1;"></line><line transform="translate(0,0)" x2="-5" y2="0" style="fill: none; stroke: #888; stroke-width: 1; opacity: 1;"></line></g><g class="mark-text role-axis-label" style="pointer-events: none;"><text text-anchor="start" transform="translate(-35,304)" style="font-family: Raleway; font-size: 14px; fill: #000; opacity: 1;">40</text><text text-anchor="start" transform="translate(-35,266.5)" style="font-family: Raleway; font-size: 14px; fill: #000; opacity: 1;">50</text><text text-anchor="start" transform="translate(-35,229)" style="font-family: Raleway; font-size: 14px; fill: #000; opacity: 1;">60</text><text text-anchor="start" transform="translate(-35,191.5)" style="font-family: Raleway; font-size: 14px; fill: #000; opacity: 1;">70</text><text text-anchor="start" transform="translate(-35,154)" style="font-family: Raleway; font-size: 14px; fill: #000; opacity: 1;">80</text><text text-anchor="start" transform="translate(-35,116.5)" style="font-family: Raleway; font-size: 14px; fill: #000; opacity: 1;">90</text><text text-anchor="start" transform="translate(-35,79)" style="font-family: Raleway; font-size: 14px; fill: #000; opacity: 1;">100</text><text text-anchor="start" transform="translate(-35,41.5)" style="font-family: Raleway; font-size: 14px; fill: #000; opacity: 1;">110</text><text text-anchor="start" transform="translate(-35,4)" style="font-family: Raleway; font-size: 14px; fill: #000; opacity: 1;">120</text></g><g class="mark-rule role-axis-domain" style="pointer-events: none;"><line transform="translate(0,300)" x2="0" y2="-300" style="fill: none; stroke: #888; stroke-width: 1; opacity: 1;"></line></g><g class="mark-text role-axis-title" style="pointer-events: none;"><text text-anchor="middle" transform="translate(-39,150) rotate(-90) translate(0,-2)" style="font-family: sans-serif; font-size: 11px; font-weight: bold; fill: #000; opacity: 1;">Treatable Mortality</text></g></g><path class="foreground" d="" style="pointer-events: none; display: none; fill: none;"></path></g></g><g class="mark-symbol role-mark marks"><path transform="translate(252.03800000000004,258.75)" d="M8.660254037844387,0A8.660254037844387,8.660254037844387,0,1,1,-8.660254037844387,0A8.660254037844387,8.660254037844387,0,1,1,8.660254037844387,0" style="fill: gray; stroke-width: 2; opacity: 0.7;"></path><path transform="translate(179.504,228.75)" d="M8.660254037844387,0A8.660254037844387,8.660254037844387,0,1,1,-8.660254037844387,0A8.660254037844387,8.660254037844387,0,1,1,8.660254037844387,0" style="fill: gray; stroke-width: 2; opacity: 0.7;"></path><path transform="translate(101.54239999999999,270)" d="M8.660254037844387,0A8.660254037844387,8.660254037844387,0,1,1,-8.660254037844387,0A8.660254037844387,8.660254037844387,0,1,1,8.660254037844387,0" style="fill: gray; stroke-width: 2; opacity: 0.7;"></path><path transform="translate(191.4868,198.75)" d="M8.660254037844387,0A8.660254037844387,8.660254037844387,0,1,1,-8.660254037844387,0A8.660254037844387,8.660254037844387,0,1,1,8.660254037844387,0" style="fill: gray; stroke-width: 2; opacity: 0.7;"></path><path transform="translate(142.5044,251.25)" d="M8.660254037844387,0A8.660254037844387,8.660254037844387,0,1,1,-8.660254037844387,0A8.660254037844387,8.660254037844387,0,1,1,8.660254037844387,0" style="fill: gray; stroke-width: 2; opacity: 0.7;"></path><path transform="translate(144.0136,191.25)" d="M8.660254037844387,0A8.660254037844387,8.660254037844387,0,1,1,-8.660254037844387,0A8.660254037844387,8.660254037844387,0,1,1,8.660254037844387,0" style="fill: gray; stroke-width: 2; opacity: 0.7;"></path><path transform="translate(344.7656,123.75)" d="M8.660254037844387,0A8.660254037844387,8.660254037844387,0,1,1,-8.660254037844387,0A8.660254037844387,8.660254037844387,0,1,1,8.660254037844387,0" style="fill: gray; stroke-width: 2; opacity: 0.7;"></path></g><g class="mark-group role-title"><g transform="translate(-50,-29)"><path class="background" d="M0,0h0v0h0Z" style="pointer-events: none; fill: none;"></path><g><g class="mark-text role-title-text" style="pointer-events: none;"><text text-anchor="start" transform="translate(0,-2)" style="font-family: Raleway; font-size: 18px; font-weight: bold; fill: black; opacity: 1;">Treatable mortality vs. household spending, 2015</text></g></g><path class="foreground" d="" style="pointer-events: none; display: none; fill: none;"></path></g></g></g><path class="foreground" d="" style="display: none; fill: none;"></path></g></g></g></svg>