<svg class="marks" width="461" height="391" viewBox="0 0 461 391" version="1.1" xmlns="http://www.w3.org/2000/svg" xmlns:xlink="http://www.w3.org/1999/xlink"><g transform="translate(55,50)"><g class="mark-group role-frame root"><g transform="translate(0,0)"><path class="background" d="M0,0h400v300h-400Z" style="fill: none; stroke: #ddd; stroke-width: 0;"></path><g><g class="mark-group role-axis"><g transform="translate(0.5,300.5)"><path class="background" d="M0,0h0v0h0Z" style="pointer-events: none; fill: none;"></path><g><g class="mark-rule role-axis-tick" style="pointer-events: none;"><line transform="translate(0,0)" x2="0" y2="5" style="fill: none; stroke: #888; stroke-width: 1; opacity: 1;"></line><line transform="translate(36,0)" x2="0" y2="5" style="fill: none; stroke: #888; stroke-width: 1; opacity: 1;"></line><line transform="translate(73,0)" x2="0" y2="5" style="fill: none; stroke: #888; stroke-width: 1; opacity: 1;"></line><line transform="translate(109,0)" x2="0" y2="5" style="fill: none; stroke: #888; stroke-width: 1; opacity: 1;"></line><line transform="translate(145,0)" x2="0" y2="5" style="fill: none; stroke: #888; stroke-width: 1; opacity: 1;"></line><line transform="translate(182,0)" x2="0" y2="5" style="fill: none; stroke: #888; stroke-width: 1; opacity: 1;"></line><line transform="translate(218,0)" x2="0" y2="5" style="fill: none; stroke: #888; stroke-width: 1; opacity: 1;"></line><line transform="translate(255,0)" x2="0" y2="5" style="fill: none; stroke: #888; stroke-width: 1; opacity: 1;"></line><line transform="translate(291,0)" x2="0" y2="5" style="fill: none; stroke: #888; stroke-width: 1; opacity: 1;"></line><line transform="translate(327,0)" x2="0" y2="5" style="fill: none; stroke: #888; stroke-width: 1; opacity: 1;"></line><line transform="translate(364,0)" x2="0" y2="5" style="fill: none; stroke: #888; stroke-width: 1; opacity: 1;"></line><line transform="translate(400,0)" x2="0" y2="5" style="fill: none; stroke: #888; stroke-width: 1; opacity: 1;"></line></g><g class="mark-text role-axis-label" style="pointer-events: none;"><text text-anchor="start" transform="translate(0,18)" style="font-family: Raleway; font-size: 14px; fill: #000; opacity: 1;">0</text><text text-anchor="middle" transform="translate(36.36363636363637,18)" style="font-family: Raleway; font-size: 14px; fill: #000; opacity: 0;">100</text><text text-anchor="middle" transform="translate(72.72727272727273,18)" style="font-family: Raleway; font-size: 14px; fill: #000; opacity: 1;">200</text><text text-anchor="middle" transform="translate(109.09090909090908,18)" style="font-family: Raleway; font-size: 14px; fill: #000; opacity: 0;">300</text><text text-anchor="middle" transform="translate(145.45454545454547,18)" style="font-family: Raleway; font-size: 14px; fill: #000; opacity: 1;">400</text><text text-anchor="middle" transform="translate(181.8181818181818,18)" style="font-family: Raleway; font-size: 14px; fill: #000; opacity: 0;">500</text><text text-anchor="middle" transform="translate(218.18181818181816,18)" style="font-family: Raleway; font-size: 14px; fill: #000; opacity: 1;">600</text><text text-anchor="middle" transform="translate(254.54545454545453,18)" style="font-family: Raleway; font-size: 14px; fill: #000; opacity: 0;">700</text><text text-anchor="middle" transform="translate(290.90909090909093,18)" style="font-family: Raleway; font-size: 14px; fill: #000; opacity: 1;">800</text><text text-anchor="middle" transform="translate(327.2727272727273,18)" style="font-family: Raleway; font-size: 14px; fill: #000; opacity: 0;">900</text><text text-anchor="middle" transform="translate(363.6363636363636,18)" style="font-family: Raleway; font-size: 14px; fill: #000; opacity: 1;">1,000</text><text text-anchor="end" transform="translate(400,18)" style="font-family: Raleway; font-size: 14px; fill: #000; opacity: 0;">1,100</text></g><g class="mark-rule role-axis-domain" style="pointer-events: none;"><line transform="translate(0,0)" x2="400" y2="0" style="fill: none; stroke: #888; stroke-width: 1; opacity: 1;"></line></g><g class="mark-text role-axis-title" style="pointer-events: none;"><text text-anchor="middle" transform="translate(200,34)" style="font-family: sans-serif; font-size: 11px; font-weight: bold; fill: #000; opacity: 1;">Household Spending</text></g></g><path class="foreground" d="" style="pointer-events: none; display: none; fill: none;"></path></g></g><g class="mark-group role-axis"><g transform="translate(0.5,0.5)"><path class="background" d="M0,0h0v0h0Z" style="pointer-events: none; fill: none;"></path><g><g class="mark-rule role-axis-tick" style="pointer-events: none;"><line transform="translate(0,300)" x2="-5" y2="0" style="fill: none; stroke: #888; stroke-width: 1; opacity: 1;"></line><line transform="translate(0,263)" x2="-5" y2="0" style="fill: none; stroke: #888; stroke-width: 1; opacity: 1;"></line><line transform="translate(0,225)" x2="-5" y2="0" style="fill: none; stroke: #888; stroke-width: 1; opacity: 1;"></line><line transform="translate(0,188)" x2="-5" y2="0" style="fill: none; stroke: #888; stroke-width: 1; opacity: 1;"></line><line transform="translate(0,150)" x2="-5" y2="0" style="fill: none; stroke: #888; stroke-width: 1; opacity: 1;"></line><line transform="translate(0,113)" x2="-5" y2="0" style="fill: none; stroke: #888; stroke-width: 1; opacity: 1;"></line><line transform="translate(0,75)" x2="-5" y2="0" style="fill: none; stroke: #888; stroke-width: 1; opacity: 1;"></line><line transform="translate(0,38)" x2="-5" y2="0" style="fill: none; stroke: #888; stroke-width: 1; opacity: 1;"></line><line transform="translate(0,0)" x2="-5" y2="0" style="fill: none; stroke: #888; stroke-width: 1; opacity: 1;"></line></g><g class="mark-text role-axis-label" style="pointer-events: none;"><text text-anchor="start" transform="translate(-35,304)" style="font-family: Raleway; font-size: 14px; fill: #000; opacity: 1;">40</text><text text-anchor="start" transform="translate(-35,266.5)" style="font-family: Raleway; font-size: 14px; fill: #000; opacity: 1;">50</text><text text-anchor="start" transform="translate(-35,229)" style="font-family: Raleway; font-size: 14px; fill: #000; opacity: 1;">60</text><text text-anchor="start" transform="translate(-35,191.5)" style="font-family: Raleway; font-size: 14px; fill: #000; opacity: 1;">70</text><text text-anchor="start" transform="translate(-35,154)" style="font-family: Raleway; font-size: 14px; fill: #000; opacity: 1;">80</text><text text-anchor="start" transform="translate(-35,116.5)" style="font-family: Raleway; font-size: 14px; fill: #000; opacity: 1;">90</text><text text-anchor="start" transform="translate(-35,79)" style="font-family: Raleway; font-size: 14px; fill: #000; opacity: 1;">100</text><text text-anchor="start" transform="translate(-35,41.5)" style="font-family: Raleway; font-size: 14px; fill: #000; opacity: 1;">110</text><text text-anchor="start" transform="translate(-35,4)" style="font-family: Raleway; font-size: 14px; fill: #000; opacity: 1;">120</text></g><g class="mark-rule role-axis-domain" style="pointer-events: none;"><line transform="translate(0,300)" x2="0" y2="-300" style="fill: none; stroke: #888; stroke-width: 1; opacity: 1;"></line></g><g class="mark-text role-axis-title" style="pointer-events: none;"><text text-anchor="middle" transform="translate(-39,150) rotate(-90) translate(0,-2)" style="font-family: sans-serif; font-size: 11px; font-weight: bold; fill: #000; opacity: 1;">Treatable Mortality</text></g></g><path class="foreground" d="" style="pointer-events: none; display: none; fill: none;"></path></g></g><g class="mark-symbol role-mark marks"><path transform="translate(301.8527272727273,258.75)" d="M8.660254037844387,0A8.660254037844387,8.660254037844387,0,1,1,-8.660254037844387,0A8.660254037844387,8.660254037844387,0,1,1,8.660254037844387,0" style="fill: gray; stroke-width: 2; opacity: 0.7;"></path><path transform="translate(235.91272727272727,228.75)" d="M8.660254037844387,0A8.660254037844387,8.660254037844387,0,1,1,-8.660254037844387,0A8.660254037844387,8.660254037844387,0,1,1,8.660254037844387,0" style="fill: gray; stroke-width: 2; opacity: 0.7;"></path><path transform="translate(165.03854545454547,270)" d="M8.660254037844387,0A8.660254037844387,8.660254037844387,0,1,1,-8.660254037844387,0A8.660254037844387,8.660254037844387,0,1,1,8.660254037844387,0" style="fill: gray; stroke-width: 2; opacity: 0.7;"></path><path transform="translate(246.80618181818178,198.75)" d="M8.660254037844387,0A8.660254037844387,8.660254037844387,0,1,1,-8.660254037844387,0A8.660254037844387,8.660254037844387,0,1,1,8.660254037844387,0" style="fill: gray; stroke-width: 2; opacity: 0.7;"></path><path transform="translate(202.27672727272727,251.25)" d="M8.660254037844387,0A8.660254037844387,8.660254037844387,0,1,1,-8.660254037844387,0A8.660254037844387,8.660254037844387,0,1,1,8.660254037844387,0" style="fill: gray; stroke-width: 2; opacity: 0.7;"></path><path transform="translate(203.64872727272726,191.25)" d="M8.660254037844387,0A8.660254037844387,8.660254037844387,0,1,1,-8.660254037844387,0A8.660254037844387,8.660254037844387,0,1,1,8.660254037844387,0" style="fill: gray; stroke-width: 2; opacity: 0.7;"></path><path transform="translate(386.1505454545454,123.75)" d="M8.660254037844387,0A8.660254037844387,8.660254037844387,0,1,1,-8.660254037844387,0A8.660254037844387,8.660254037844387,0,1,1,8.660254037844387,0" style="fill: gray; stroke-width: 2; opacity: 0.7;"></path></g><g class="mark-group role-title"><g transform="translate(-50,-29)"><path class="background" d="M0,0h0v0h0Z" style="pointer-events: none; fill: none;"></path><g><g class="mark-text role-title-text" style="pointer-events: none;"><text text-anchor="start" transform="translate(0,-2)" style="font-family: Raleway; font-size: 18px; font-weight: bold; fill: black; opacity: 1;">Treatable mortality vs. household spending, 2015</text></g></g><path class="foreground" d="" style="pointer-events: none; display: none; fill: none;"></path></g></g></g><path class="foreground" d="" style="display: none; fill: none;"></path></g></g></g></svg>